<?xml version="1.0" encoding="utf-8"?>
<!-- Generator: Adobe Illustrator 23.0.2, SVG Export Plug-In . SVG Version: 6.00 Build 0)  -->
<svg version="1.1" xmlns="http://www.w3.org/2000/svg" xmlns:xlink="http://www.w3.org/1999/xlink" x="0px" y="0px"
	 viewBox="0 0 184.25 184.25" style="enable-background:new 0 0 184.25 184.25;" xml:space="preserve">
<style type="text/css">
	.st0{fill:#1A304F;}
	.st1{fill:#DA965C;}
	.st2{fill:#819998;}
	.st3{clip-path:url(#SVGID_2_);fill:#DA965C;}
	.st4{clip-path:url(#SVGID_4_);fill:#819998;}
	.st5{fill:#040006;}
	.st6{fill:#2A2A2A;}
	.st7{fill:#4B4C4C;}
	.st8{fill:#808181;}
	.st9{fill:#C6C6C5;}
	.st10{clip-path:url(#SVGID_6_);fill:#819998;}
	.st11{clip-path:url(#SVGID_6_);fill:#1A304F;}
	.st12{clip-path:url(#SVGID_8_);fill:#1A304F;}
	.st13{clip-path:url(#SVGID_8_);fill:#819998;}
	.st14{clip-path:url(#SVGID_10_);fill:#1A304F;}
	.st15{clip-path:url(#SVGID_10_);fill:#DA965C;}
	.st16{clip-path:url(#SVGID_12_);fill:#1A304F;}
	.st17{clip-path:url(#SVGID_14_);fill:#DA965C;}
	.st18{clip-path:url(#SVGID_14_);fill:#1A304F;}
	.st19{fill:none;stroke:#090609;stroke-width:22;stroke-miterlimit:10;}
	.st20{fill:none;stroke:#090609;stroke-width:30;stroke-linecap:round;stroke-linejoin:round;stroke-miterlimit:10;}
	.st21{fill:none;stroke:#090609;stroke-width:22;stroke-linecap:round;stroke-linejoin:round;stroke-miterlimit:10;}
	.st22{fill:#FFFFFF;}
	.st23{fill:#152B44;}
</style>
<g id="Camada_1">
	<path class="st1" d="M141.84,33.61c-5.47,0-10.22,3.16-12.52,7.74h-4.88h-37.4H45.46c-9.4,0-17.06,7.65-17.06,17.06v9.09
		c0,9.4,7.65,17.06,17.06,17.06h37.86c4.51,0,8.18,3.67,8.18,8.18s-3.67,8.18-8.18,8.18h-6.66c-12.06,0-21.87,9.81-21.87,21.87
		c0,11.34,9.22,20.56,20.56,20.56h5.86c2.38,4.34,7,7.3,12.29,7.3c7.72,0,14.01-6.28,14.01-14.01c0-7.72-6.28-14.01-14.01-14.01
		c-5.29,0-9.91,2.95-12.29,7.3h-5.86c-3.94,0-7.14-3.2-7.14-7.14c0-4.66,3.79-8.45,8.45-8.45h6.66h8.89h27.99
		c11.91,0,21.6-9.69,21.6-21.6c0-11.91-9.69-21.6-21.6-21.6H87.04c-2,0-3.64-1.63-3.64-3.64v-9.09c0-2.01,1.63-3.64,3.64-3.64h37.4
		h5.37c2.45,4.1,6.92,6.85,12.03,6.85c7.72,0,14.01-6.28,14.01-14.01C155.85,39.9,149.57,33.61,141.84,33.61z M93.5,132.47
		c2.3,0,4.17,1.87,4.17,4.17c0,2.3-1.87,4.17-4.17,4.17s-4.17-1.87-4.17-4.17C89.34,134.34,91.2,132.47,93.5,132.47z M128.37,92.74
		c0,4.51-3.67,8.18-8.18,8.18h-16.88c1.04-2.52,1.61-5.29,1.61-8.18c0-2.89-0.58-5.66-1.61-8.18h16.89
		C124.7,84.56,128.37,88.23,128.37,92.74z M70.38,71.14H45.46c-2,0-3.64-1.63-3.64-3.64v-9.09c0-2.01,1.63-3.64,3.64-3.64h24.92
		c-0.26,1.17-0.39,2.39-0.39,3.64v9.09C69.98,68.75,70.12,69.97,70.38,71.14z M141.84,51.79c-2.3,0-4.17-1.87-4.17-4.17
		c0-2.3,1.87-4.17,4.17-4.17c2.3,0,4.17,1.87,4.17,4.17C146.01,49.92,144.14,51.79,141.84,51.79z"/>
</g>
<g id="Camada_2">
</g>
<g id="Camada_3">
</g>
</svg>
