<?xml version="1.0" standalone="no"?>
<!DOCTYPE svg PUBLIC "-//W3C//DTD SVG 20010904//EN"
 "http://www.w3.org/TR/2001/REC-SVG-20010904/DTD/svg10.dtd">
<svg version="1.0" xmlns="http://www.w3.org/2000/svg"
 width="512.000000pt" height="512.000000pt" viewBox="0 0 512.000000 512.000000"
 preserveAspectRatio="xMidYMid meet">
<metadata>
Created by potrace 1.11, written by Peter Selinger 2001-2013
</metadata>
<g transform="translate(0.000000,512.000000) scale(0.100000,-0.100000)"
fill="#000000" stroke="none">
<path d="M596 4343 c-1 -1 -53 -4 -116 -7 -232 -11 -406 -18 -437 -19 -18 0
-33 -1 -33 -3 0 -2 45 -30 105 -64 17 -9 136 -81 265 -160 190 -115 483 -292
648 -391 15 -9 257 -155 537 -324 281 -169 524 -315 540 -325 17 -9 59 -35 95
-57 l65 -40 -1 -54 c-1 -30 -4 -90 -8 -134 -11 -149 -22 -318 -31 -490 -8
-142 -11 -155 -27 -170 -7 -7 -112 -72 -233 -145 -262 -159 -1419 -865 -1455
-888 -14 -9 -37 -23 -51 -32 -84 -49 -436 -265 -444 -272 -11 -11 953 -4 1020
7 281 45 394 93 885 377 378 219 569 321 638 343 17 5 49 -6 120 -41 116 -56
337 -177 480 -262 57 -34 106 -62 108 -62 4 0 77 -44 130 -78 10 -6 26 -15 34
-19 8 -4 33 -18 54 -31 70 -43 270 -140 342 -165 166 -58 236 -66 524 -61 129
2 255 6 280 8 53 5 372 19 414 19 23 -1 26 2 15 12 -11 10 -379 232 -516 311
-18 11 -65 39 -105 63 -40 24 -296 176 -568 338 -272 163 -511 305 -530 317
-19 12 -44 27 -55 33 -11 6 -100 59 -198 117 l-177 106 -1 373 c0 204 -1 398
-2 430 l-2 58 330 202 c181 111 338 207 347 212 10 6 260 158 555 339 296 181
637 389 757 463 121 73 218 134 215 134 -11 3 -74 7 -204 13 -77 4 -180 9
-230 12 -465 23 -653 13 -814 -43 -100 -34 -273 -124 -421 -219 -81 -51 -651
-404 -717 -443 l-72 -43 -55 12 c-31 6 -58 16 -61 21 -4 5 -13 9 -21 9 -27 0
-411 190 -504 250 -25 16 -383 231 -420 253 -223 128 -362 182 -525 206 -56 8
-461 11 -469 4z"/>
</g>
</svg>
